<svg width="25" height="18" viewBox="0 0 25 18" fill="none" xmlns="http://www.w3.org/2000/svg">
<path d="M21.2501 2.50001C21.2501 1.125 20.1251 0 18.7501 0H15.0001V2.50001H18.7501V5.81252L14.4001 11.25H10V5.00002H5.00002C2.23751 5.00002 0 7.23753 0 10V13.75H2.50001C2.50001 15.8251 4.17502 17.5001 6.25002 17.5001C8.32503 17.5001 10 15.8251 10 13.75H15.6001L21.2501 6.68752V2.50001ZM6.25002 15.0001C5.56252 15.0001 5.00002 14.4376 5.00002 13.75H7.50003C7.50003 14.4376 6.93753 15.0001 6.25002 15.0001Z" fill="#636363"/>
<path d="M9.99987 1.25H3.74985V3.75001H9.99987V1.25Z" fill="#636363"/>
<path d="M21.25 10C19.175 10 17.5 11.6751 17.5 13.7501C17.5 15.8251 19.175 17.5001 21.25 17.5001C23.325 17.5001 25 15.8251 25 13.7501C25 11.6751 23.325 10 21.25 10ZM21.25 15.0001C20.5625 15.0001 20 14.4376 20 13.7501C20 13.0626 20.5625 12.5001 21.25 12.5001C21.9375 12.5001 22.5 13.0626 22.5 13.7501C22.5 14.4376 21.9375 15.0001 21.25 15.0001Z" fill="#636363"/>
</svg>
