<svg width="25" height="33" viewBox="0 0 25 33" fill="none" xmlns="http://www.w3.org/2000/svg">
<path d="M10.9391 1.57143V3.14286H6.25627C-0.572814 3.14286 0.0125358 1.76786 0.0125358 18.0714C0.0125358 30.9179 0.0515591 31.4679 0.793002 32.2143C1.53445 32.9607 2.08077 33 12.5 33C22.9192 33 23.4656 32.9607 24.207 32.2143C24.9484 31.4679 24.9875 30.9179 24.9875 18.0714C24.9875 1.76786 25.5728 3.14286 18.7437 3.14286H14.0609V1.57143V0H12.5H10.9391V1.57143ZM14.0609 4.71428V6.28571H12.5H10.9391V4.71428V3.14286H12.5H14.0609V4.71428ZM15.0365 12.375C15.778 13.0821 16.0121 13.75 16.0121 14.9286C16.0121 16.1071 15.778 16.775 15.0365 17.4821C14.3341 18.2286 13.6707 18.4643 12.5 18.4643C11.3293 18.4643 10.6659 18.2286 9.96348 17.4821C9.22204 16.775 8.9879 16.1071 8.9879 14.9286C8.9879 13.75 9.22204 13.0821 9.96348 12.375C10.6659 11.6286 11.3293 11.3929 12.5 11.3929C13.6707 11.3929 14.3341 11.6286 15.0365 12.375ZM16.9877 21.5679C18.9779 22.4714 19.7974 23.4143 20.1096 25.2214L20.3827 26.7143H12.5H4.61729L4.89045 25.2214C5.20264 23.4143 6.02213 22.4714 8.01232 21.5679C10.1586 20.5857 14.8414 20.5857 16.9877 21.5679Z" fill="#636363"/>
</svg>
