<svg width="20" height="25" viewBox="0 0 20 25" fill="none" xmlns="http://www.w3.org/2000/svg">
<path d="M8.5 0.375C8.28125 0.59375 8.125 1.15625 8.125 1.625C8.125 2.34375 7.90625 2.59375 6.96875 2.96875C5.40625 3.625 3.8125 5.15625 3.09375 6.71875C2.625 7.75 2.5 8.75 2.5 12.6562V17.375L1.25 18.5938C0.5 19.3125 0 20.0938 0 20.5312V21.25H10H20V20.5312C20 20.0938 19.5 19.3125 18.75 18.5938L17.5 17.375V12.6562C17.5 8.75 17.375 7.75 16.9062 6.71875C16.1875 5.15625 14.5938 3.625 13.0625 2.96875C12.0938 2.59375 11.875 2.34375 11.875 1.625C11.875 1.15625 11.7188 0.59375 11.5 0.375C11 -0.125 9 -0.125 8.5 0.375Z" fill="#636363"/>
<path d="M7.5 23.125C7.5 24.1562 8.59375 25 10 25C11.4062 25 12.5 24.1562 12.5 23.125C12.5 22.5625 12.2812 22.5 10 22.5C7.71875 22.5 7.5 22.5625 7.5 23.125Z" fill="#636363"/>
</svg>
