<svg width="25" height="27" viewBox="0 0 25 27" fill="none" xmlns="http://www.w3.org/2000/svg">
<path d="M11.1111 27V14.4753L0 8.14449V19.1293C0 19.6312 0.121528 20.0875 0.364583 20.4981C0.607639 20.9087 0.949074 21.2395 1.38889 21.4905L11.1111 27ZM13.8889 27L23.6111 21.4905C24.0509 21.2395 24.3924 20.9087 24.6354 20.4981C24.8785 20.0875 25 19.6312 25 19.1293V8.14449L13.8889 14.4753V27ZM19.4097 8.17871L23.5069 5.81749L13.8889 0.376426C13.4491 0.125475 12.9861 0 12.5 0C12.0139 0 11.5509 0.125475 11.1111 0.376426L8.36806 1.91635L19.4097 8.17871ZM12.5 12.1141L16.6319 9.78707L5.625 3.49049L1.45833 5.85171L12.5 12.1141Z" fill="white"/>
</svg>
