<svg width="25" height="25" viewBox="0 0 25 25" fill="none" xmlns="http://www.w3.org/2000/svg">
<path d="M24.2579 11.7654L13.2225 0.725181C12.7601 0.262566 12.1227 0 11.4603 0H2.49953C1.12479 0 0 1.12528 0 2.50063V11.4654C0 12.128 0.262451 12.7657 0.737361 13.2283L11.7728 24.2686C12.7476 25.2438 14.3348 25.2438 15.3096 24.2686L24.2704 15.3038C25.2453 14.3286 25.2453 12.7532 24.2579 11.7654ZM5.62394 7.50188C4.58664 7.50188 3.7493 6.66417 3.7493 5.62641C3.7493 4.58865 4.58664 3.75094 5.62394 3.75094C6.66125 3.75094 7.49859 4.58865 7.49859 5.62641C7.49859 6.66417 6.66125 7.50188 5.62394 7.50188Z" fill="white"/>
</svg>
